<?xml version="1.0" encoding="UTF-8"?>
<svg width="279px" height="65px" viewBox="0 0 279 65" version="1.1" xmlns="http://www.w3.org/2000/svg" xmlns:xlink="http://www.w3.org/1999/xlink">
    <!-- Generator: Sketch 47.1 (45422) - http://www.bohemiancoding.com/sketch -->
    <title>LOGO</title>
    <desc>Created with Sketch.</desc>
    <defs>
        <polygon id="path-1" points="0 64.93175 278.673419 64.93175 278.673419 0 0 0"></polygon>
    </defs>
    <g id="Page-1" stroke="none" stroke-width="1" fill="none" fill-rule="evenodd">
        <g id="HOMEPAGE" transform="translate(-126.000000, -49.000000)">
            <g id="NAV-GRAY" transform="translate(0.000000, -2.000000)">
                <g id="LOGO" transform="translate(126.000000, 51.000000)">
                    <path d="M46.9709116,16.6010722 C46.7322837,15.8496 46.3267605,15.2017667 45.7824581,14.6886278 L47.0026326,12.7375444 C49.126493,11.8921833 50.8913302,11.3400444 52.4427721,11.0367111 L46.9709116,16.6010722 Z" id="Fill-1" fill="#FEFEFE"></path>
                    <path d="M44.4469349,13.8135833 C44.7107953,13.9269722 44.9551907,14.066 45.1866093,14.2198333 L45.9911674,13.1466111 C45.4958884,13.3538889 44.9822256,13.5756111 44.4469349,13.8135833" id="Fill-3" fill="#FEFEFE"></path>
                    <path d="M66.2740709,17.4410889 C62.2574081,12.3479778 58.7677453,10.4171167 54.2421058,10.7800333 C53.76485,10.8183111 53.2645244,10.8908944 52.7490593,10.9826167 L47.2523267,17.5718111 L47.791943,19.4976167 L57.0980709,12.2551722 L48.0824779,20.5347278 L48.5244081,22.1117 L59.2586988,15.8782 L48.8214314,23.1704778 L49.2291174,24.6257556 L60.574757,20.0400056 L49.5265012,25.6867 L49.9525709,27.2069778 L61.0047919,24.6073389 L50.2459895,28.2531167 L50.7481174,30.0453111 L60.5340244,29.4332278 L51.0289198,31.0473944 L51.6016988,33.0916444 C51.6301756,33.1938389 51.6532453,33.3043389 51.6752337,33.4166444 L59.1783151,34.3620333 L51.8565477,34.3082278 C52.188536,35.5031444 52.4909663,36.6514778 52.7461756,37.7637 L56.9809198,39.23595 L52.8856756,38.3916722 C53.2771407,40.2066167 53.5319895,41.9320056 53.5698384,43.6183944 L54.01285,43.8986167 L53.5723616,43.70145 C53.6527453,48.1178389 52.2379198,52.2789222 47.901164,57.1355056 C61.8198035,47.4429222 69.6354081,30.8520333 66.2740709,17.4410889" id="Fill-5" fill="#FEFEFE"></path>
                    <path d="M20.0227919,48.178 L19.5166988,46.3724444 L10.8154314,54.1226111 C11.3910942,54.1587222 11.9811756,54.1558333 12.5918035,54.1067222 L12.592164,54.1067222 C13.7218616,54.0160833 14.9524895,53.7719722 16.3467686,53.3668056 L20.0512686,48.2621389 C20.0426174,48.2336111 20.0307221,48.2068889 20.0227919,48.178" id="Fill-7" fill="#FEFEFE"></path>
                    <path d="M21.8765198,50.7252056 C21.2828337,50.3337611 20.7983686,49.8173722 20.4505198,49.2009556 L17.0470081,53.1558444 C18.3526128,52.7409278 19.817543,52.1794 21.4846942,51.4629556 L21.8765198,50.7252056 Z" id="Fill-9" fill="#FEFEFE"></path>
                    <g id="Group-13" transform="translate(0.000000, 7.876194)" fill="#FEFEFE">
                        <path d="M18.7982919,35.932325 L7.70641977,43.4286306 L18.4753151,34.7800194 L18.1299895,33.5482694 L5.96068721,39.5206861 L17.8052105,32.3891028 L17.4670942,31.1822694 L5.08439651,35.1382417 L17.143036,30.0267139 L16.7638267,28.6729083 L5.10458256,30.4224917 L16.4451756,27.5350472 L15.9621523,25.8121861 L6.02160581,25.5254639 L15.6579198,24.7259639 L15.4452453,23.9679917 C15.3756756,23.7199083 15.3262919,23.4505194 15.2906058,23.1201028 C15.210943,22.838075 15.133443,22.558575 15.0570244,22.2819639 L7.80518721,20.6042417 L14.7982105,21.3246583 C14.4456756,19.9986583 14.1410826,18.7286306 13.9075012,17.4990472 L10.3983733,15.8169917 L13.7990012,16.9042972 C12.8116872,11.1687694 13.5127919,6.24863056 18.5423616,0.345908333 C4.89335,10.1749917 -2.63784767,26.7239917 0.847489535,39.9251306 C4.18972209,44.0627417 7.16860581,45.9917972 10.7386523,46.2398806 L19.2005709,37.3684639 L18.7982919,35.932325 Z" id="Fill-11"></path>
                    </g>
                    <path d="M46.7862453,41.7889333 L45.0203267,42.6375444 L50.3689081,48.1990167 L43.8614314,43.1943778 L41.6827802,44.2408778 L46.1666058,51.9997111 L40.4600826,44.8284056 L38.6718151,45.6874889 L41.540757,55.1789333 L37.4260477,46.2862111 L35.7700709,47.0817389 L36.6402337,57.6334056 L34.5225012,47.6811833 L32.7850593,48.5157111 L31.6225593,59.2851278 L31.5544314,49.1072111 L29.4950942,50.0966556 L26.6488616,60.0806556 L28.3156523,50.6632389 L28.0871174,50.7730167 C27.7169198,50.9510444 27.3330244,51.1005444 26.9130826,51.2294611 C26.4772802,51.4389056 26.0649081,51.6310167 25.6442453,51.8296278 L21.8788267,59.99435 L24.5797919,52.3294056 C23.219036,52.9581 21.9318151,53.5261278 20.7123616,54.0201278 L17.4663733,59.0291 L19.9762919,54.3032389 C18.0607802,55.0482111 16.3002686,55.6032389 14.6486174,55.9430444 L13.553164,57.2163222 L14.446757,55.9849333 C13.7305128,56.1254056 13.0265244,56.2395167 12.3452453,56.2940444 C8.97741977,56.5641556 6.04936163,55.7166278 3.2575593,53.6409611 C7.83330349,61.4160444 16.9130593,65.6681278 27.4253035,64.8263778 L27.4267453,64.8263778 C31.7638616,64.4786278 36.1636988,63.3064611 40.5065826,61.3409333 C49.5095593,53.9193778 51.8100477,49.0328222 51.1896872,42.6350167 L47.89035,41.1587944 C47.5378151,41.3931556 47.1694198,41.6047667 46.7862453,41.7889333" id="Fill-14" fill="#FEFEFE"></path>
                    <path d="M48.6999907,40.5407167 L51.1284442,42.0754389 C50.9925488,40.9549111 50.7759093,39.7874389 50.4915023,38.5484667 C50.0001884,39.29705 49.3895605,39.9636611 48.6999907,40.5407167" id="Fill-16" fill="#FEFEFE"></path>
                    <path d="M22.7732488,21.9380417 L17.656807,15.1264028 L23.9901791,21.3523194 C24.5878302,21.0652361 25.226214,20.7579306 25.8869465,20.4401528 L22.089086,11.6225417 L27.1413651,19.836375 C27.6917953,19.5713194 28.2451093,19.3051806 28.7915744,19.0419306 L26.8713767,8.79431944 L30.0564465,18.4334583 C30.6252605,18.1597361 31.1717256,17.8968472 31.683586,17.6502083 L31.8504814,6.73309722 L32.9419698,17.0442639 C33.7562605,16.6520972 34.3942837,16.3451528 34.7615977,16.1678472 L36.8663535,5.50423611 L35.9907837,15.5662361 C36.7794814,15.1787639 37.5501558,14.8010417 38.2974,14.4374028 L41.7578651,5.14818056 L39.4436791,13.8812917 C40.5661674,13.339625 41.6396326,12.8329861 42.6759698,12.3588472 L46.367493,5.676125 L43.6099349,11.9352639 C45.2842953,11.1874028 46.8523186,10.5420972 48.3349116,10.0210139 L50.547086,7.07073611 L48.7999116,9.86429167 C50.8379814,9.17601389 52.7217721,8.72570833 54.5031907,8.58270833 C57.9798767,8.30429167 61.0012953,9.22440278 63.8835744,11.4640139 C59.335586,3.57409722 50.2212256,-0.744430556 39.6141791,0.105986111 C35.0445628,0.472152778 30.4165512,1.750125 25.8573884,3.90523611 C18.173714,10.3600972 15.6508186,14.8999861 15.7027256,20.3737083 L20.3192023,23.118875 C20.5549465,23.0054861 21.4871093,22.5569861 22.7732488,21.9380417" id="Fill-18" fill="#FEFEFE"></path>
                    <path d="M19.266464,23.7114944 L15.7144407,20.8189944 C15.7656267,22.3201333 15.9988477,23.8945778 16.367964,25.6019111 L16.998057,25.8034111 C17.6321151,24.9891056 18.393057,24.2748278 19.266464,23.7114944" id="Fill-20" fill="#FEFEFE"></path>
                    <path d="M86.5324628,29.440775 C89.7290674,29.440775 91.8842884,27.305525 91.8842884,23.7706083 L91.8842884,14.2816917 L93.2338698,14.2816917 L93.2338698,23.6998306 C93.2338698,28.1122472 90.581207,30.7934972 86.5324628,30.7934972 C82.4829977,30.7934972 79.854486,28.1122472 79.854486,23.6998306 L79.854486,14.2816917 L81.1806372,14.2816917 L81.1806372,23.7706083 C81.1806372,27.305525 83.3351372,29.440775 86.5324628,29.440775" id="Fill-22" fill="#FEFEFE"></path>
                    <polygon id="Fill-24" fill="#FEFEFE" points="96.1413093 14.2815472 97.4916116 14.2815472 109.33217 28.4204917 109.33217 14.2815472 110.63453 14.2815472 110.63453 30.4849639 109.426972 30.4849639 97.4436698 16.156075 97.4436698 30.4849639 96.1413093 30.4849639"></polygon>
                    <mask id="mask-2" fill="white">
                        <use xlink:href="#path-1"></use>
                    </mask>
                    <g id="Clip-27"></g>
                    <polygon id="Fill-26" fill="#FEFEFE" mask="url(#mask-2)" points="114.495977 30.485 115.798337 30.485 115.798337 14.2815833 114.495977 14.2815833"></polygon>
                    <polygon id="Fill-28" fill="#FEFEFE" mask="url(#mask-2)" points="118.782123 14.2815472 124.323553 27.875575 129.912205 14.2815472 131.285577 14.2815472 124.441786 30.7695194 124.228751 30.7695194 117.36117 14.2815472"></polygon>
                    <polygon id="Fill-29" fill="#FEFEFE" mask="url(#mask-2)" points="132.65985 14.2815472 141.422397 14.2815472 141.422397 15.3258806 133.96221 15.3258806 133.96221 21.7543806 141.18521 21.7543806 141.18521 22.7983528 133.96221 22.7983528 133.96221 29.3936861 141.611641 29.3936861 141.611641 30.4849639 132.65985 30.4849639"></polygon>
                    <path d="M145.637315,21.5885583 L146.632559,21.5885583 C148.266187,21.5885583 149.497536,21.5885583 150.397257,21.1851972 C151.581745,20.6630306 152.17399,19.7140306 152.17399,18.3385583 C152.17399,16.4878639 150.824048,15.3727528 148.337559,15.3727528 L145.637315,15.3727528 L145.637315,21.5885583 Z M148.266187,14.281475 C151.77135,14.281475 153.594583,15.7761139 153.594583,18.3385583 C153.594583,20.3308083 152.576629,21.6355028 150.51585,22.3003083 C151.108094,22.6325306 151.581745,23.0828361 151.960594,23.6519472 L156.413059,30.4848917 L154.944164,30.4848917 L152.363234,26.4989472 C151.321129,24.9096972 150.586501,23.9133917 150.161152,23.4861972 C149.521327,22.8455861 148.527164,22.7036694 146.963827,22.7036694 L145.637315,22.7036694 L145.637315,30.4848917 L144.334955,30.4848917 L144.334955,14.281475 L148.266187,14.281475 Z" id="Fill-30" fill="#FEFEFE" mask="url(#mask-2)"></path>
                    <path d="M161.50517,15.2539472 C159.491612,15.2539472 158.166181,16.6066694 158.166181,18.2905306 C158.166181,20.0462528 159.279298,20.6630306 161.362786,21.5408917 C162.688937,22.0865306 163.872705,22.513725 164.701774,23.4392528 C165.38846,24.1979472 165.767309,25.1942528 165.767309,26.2855306 C165.767309,28.847975 163.802053,30.7221417 160.984298,30.7221417 C159.587135,30.7221417 158.213042,30.2472806 156.815879,29.2751694 L156.815879,27.7090306 C158.307844,28.8714472 159.657786,29.4647528 160.960147,29.4647528 C163.067786,29.4647528 164.394298,28.2308361 164.394298,26.238225 C164.394298,24.3405861 163.115728,23.7238083 160.889495,22.7986417 C158.260984,21.7073639 156.863821,20.687225 156.863821,18.3620306 C156.863821,15.9187528 158.686693,14.0680583 161.552391,14.0680583 C162.83096,14.0680583 164.015449,14.4241139 165.223007,15.1358639 L165.223007,16.582475 C163.920647,15.704975 162.736158,15.2539472 161.50517,15.2539472" id="Fill-31" fill="#FEFEFE" mask="url(#mask-2)"></path>
                    <polygon id="Fill-32" fill="#FEFEFE" mask="url(#mask-2)" points="168.516 30.485 169.81836 30.485 169.81836 14.2815833 168.516 14.2815833"></polygon>
                    <polygon id="Fill-33" fill="#FEFEFE" mask="url(#mask-2)" points="177.343466 15.4443972 171.328385 15.4443972 171.328385 14.2816194 184.75499 14.2816194 184.75499 15.4443972 178.740629 15.4443972 178.740629 30.484675 177.343466 30.484675"></polygon>
                    <polygon id="Fill-34" fill="#FEFEFE" mask="url(#mask-2)" points="191.440644 21.8020833 185.164947 14.2815833 186.775505 14.2815833 192.103179 20.6873333 197.431935 14.2815833 199.042493 14.2815833 192.766795 21.8020833 192.766795 30.4846389 191.440644 30.4846389"></polygon>
                    <path d="M207.70948,21.8260611 L210.172538,21.8260611 C212.943794,21.8260611 214.246155,20.8059222 214.246155,18.5518667 C214.246155,16.4646444 212.919643,15.3726444 210.409724,15.3726444 L207.70948,15.3726444 L207.70948,21.8260611 Z M210.337992,14.2813667 C213.866585,14.2813667 215.666748,15.7760056 215.666748,18.6230056 C215.666748,21.2323944 213.819724,22.9411722 210.906806,22.9411722 L207.70948,22.9411722 L207.70948,30.4847833 L206.40712,30.4847833 L206.40712,14.2813667 L210.337992,14.2813667 Z" id="Fill-35" fill="#FEFEFE" mask="url(#mask-2)"></path>
                    <path d="M224.147591,23.7476417 L221.045788,16.3928917 L217.942905,23.7476417 L224.147591,23.7476417 Z M220.784812,14.1388361 L221.305684,14.1388361 L228.362509,30.4848917 L226.989498,30.4848917 L224.597812,24.8385583 L217.493405,24.8385583 L215.100998,30.4848917 L213.727986,30.4848917 L220.784812,14.1388361 Z" id="Fill-36" fill="#FEFEFE" mask="url(#mask-2)"></path>
                    <path d="M230.944341,21.5885583 L231.939585,21.5885583 C233.572852,21.5885583 234.804562,21.5885583 235.704283,21.1851972 C236.888771,20.6630306 237.481015,19.7140306 237.481015,18.3385583 C237.481015,16.4878639 236.130713,15.3727528 233.644224,15.3727528 L230.944341,15.3727528 L230.944341,21.5885583 Z M233.572852,14.281475 C237.078376,14.281475 238.901608,15.7761139 238.901608,18.3385583 C238.901608,20.3308083 237.883294,21.6355028 235.822876,22.3003083 C236.414759,22.6325306 236.888771,23.0828361 237.26762,23.6519472 L241.719724,30.4848917 L240.250829,30.4848917 L237.670259,26.4989472 C236.628155,24.9096972 235.893527,23.9133917 235.468178,23.4861972 C234.828352,22.8455861 233.833829,22.7036694 232.270492,22.7036694 L230.944341,22.7036694 L230.944341,30.4848917 L229.64198,30.4848917 L229.64198,14.281475 L233.572852,14.281475 Z" id="Fill-37" fill="#FEFEFE" mask="url(#mask-2)"></path>
                    <polygon id="Fill-38" fill="#FEFEFE" mask="url(#mask-2)" points="242.998799 14.2815472 244.301159 14.2815472 244.301159 22.2292417 251.973659 14.2815472 253.65559 14.2815472 245.98309 22.2292417 254.50809 30.4849639 252.684497 30.4849639 244.301159 22.347325 244.301159 30.4849639 242.998799 30.4849639"></polygon>
                    <path d="M80.3002012,49.3087833 L82.1403756,49.3087833 C84.3550733,49.3087833 85.4137593,48.6725056 85.4137593,47.0893944 C85.4137593,45.7030889 84.2732477,44.7732278 82.4172128,44.7732278 L80.3002012,44.7732278 L80.3002012,49.3087833 Z M80.3002012,44.0224778 L82.1079337,44.0224778 C83.5570035,44.0224778 84.517643,43.1254778 84.517643,41.8041722 C84.517643,40.4669778 83.5570035,39.6349778 81.9612244,39.6349778 L80.3002012,39.6349778 L80.3002012,44.0224778 Z M79.4048058,38.9167278 L82.0261081,38.9167278 C84.1597012,38.9167278 85.4296198,40.0423111 85.4296198,41.7391722 C85.4296198,42.8806444 84.9083872,43.7126444 83.8504221,44.2189222 C85.5438872,44.6432278 86.4068407,45.6543389 86.4068407,47.1879778 C86.4068407,48.1503389 85.9346314,48.9657278 85.0878988,49.5045056 C84.2732477,50.0263111 83.2801663,50.0588111 82.0261081,50.0588111 L79.4048058,50.0588111 L79.4048058,38.9167278 Z" id="Fill-39" fill="#FEFEFE" mask="url(#mask-2)"></path>
                    <polygon id="Fill-40" fill="#FEFEFE" mask="url(#mask-2)" points="91.5511826 38.9166194 97.5759965 38.9166194 97.5759965 39.6348694 92.4465779 39.6348694 92.4465779 44.0559528 97.4134267 44.0559528 97.4134267 44.7734806 92.4465779 44.7734806 92.4465779 49.308675 97.7061244 49.308675 97.7061244 50.0587028 91.5511826 50.0587028"></polygon>
                    <polygon id="Fill-41" fill="#FEFEFE" mask="url(#mask-2)" points="102.833308 38.9166194 103.729424 38.9166194 103.729424 44.0718417 111.122564 44.0718417 111.122564 38.9166194 112.017959 38.9166194 112.017959 50.0587028 111.122564 50.0587028 111.122564 44.8550917 103.729424 44.8550917 103.729424 50.0587028 102.833308 50.0587028"></polygon>
                    <path d="M123.333897,45.4257917 L121.200303,40.3684306 L119.067792,45.4257917 L123.333897,45.4257917 Z M121.021873,38.8189028 L121.379815,38.8189028 L126.232757,50.0588472 L125.287978,50.0588472 L123.643176,46.1765417 L118.758152,46.1765417 L117.11335,50.0588472 L116.168571,50.0588472 L121.021873,38.8189028 Z" id="Fill-42" fill="#FEFEFE" mask="url(#mask-2)"></path>
                    <polygon id="Fill-43" fill="#FEFEFE" mask="url(#mask-2)" points="128.776055 38.9166194 132.586892 48.2647028 136.42945 38.9166194 137.374229 38.9166194 132.667636 50.254425 132.520927 50.254425 127.799194 38.9166194"></polygon>
                    <polygon id="Fill-44" fill="#FEFEFE" mask="url(#mask-2)" points="141.622419 50.0586667 142.517814 50.0586667 142.517814 38.9165833 141.622419 38.9165833"></polygon>
                    <path d="M150.251557,48.0032944 C151.147313,48.9169056 152.417592,49.4549611 153.703731,49.4549611 C155.022673,49.4549611 156.227708,48.9497667 157.156266,48.0032944 C158.067883,47.0737944 158.573255,45.8333778 158.573255,44.4795722 C158.573255,43.1423778 158.084464,41.9344611 157.156266,40.9887111 C156.24429,40.0584889 155.006092,39.5204333 153.703731,39.5204333 C152.417592,39.5204333 151.195976,40.0426 150.251557,40.9887111 C149.340301,41.9019611 148.834569,43.1423778 148.834569,44.4795722 C148.834569,45.8008778 149.356162,47.0737944 150.251557,48.0032944 M149.567755,40.4177944 C150.691685,39.32435 152.140755,38.7371833 153.703731,38.7371833 C155.28401,38.7371833 156.73272,39.32435 157.840429,40.4177944 C158.963999,41.5267667 159.550115,42.9300444 159.550115,44.4795722 C159.550115,45.6546278 159.208394,46.7636 158.556313,47.70935 C157.449324,49.3246 155.690976,50.2544611 153.703731,50.2544611 C152.140755,50.2544611 150.642301,49.6510444 149.567755,48.5745722 C148.460406,47.4652389 147.857708,46.01285 147.857708,44.4467111 C147.857708,42.9459333 148.476266,41.4942667 149.567755,40.4177944" id="Fill-45" fill="#FEFEFE" mask="url(#mask-2)"></path>
                    <path d="M165.638551,43.9414806 L166.321993,43.9414806 C167.446284,43.9414806 168.292295,43.9414806 168.911935,43.6641472 C169.725865,43.3052028 170.13283,42.652675 170.13283,41.7065639 C170.13283,40.4343694 169.204633,39.6673694 167.494586,39.6673694 L165.638551,39.6673694 L165.638551,43.9414806 Z M167.446284,38.9166194 C169.855633,38.9166194 171.110051,39.9447028 171.110051,41.7065639 C171.110051,43.0769806 170.409307,43.9739806 168.99304,44.4307861 C169.400005,44.6590083 169.725865,44.9688417 169.986842,45.3606472 L173.047551,50.0587028 L172.038609,50.0587028 L170.263319,47.3185917 C169.546714,46.2251472 169.041702,45.5401194 168.748644,45.246175 C168.309237,44.8059806 167.625435,44.7084806 166.549807,44.7084806 L165.638551,44.7084806 L165.638551,50.0587028 L164.743156,50.0587028 L164.743156,38.9166194 L167.446284,38.9166194 Z" id="Fill-46" fill="#FEFEFE" mask="url(#mask-2)"></path>
                    <path d="M182.555756,45.4257917 L180.422163,40.3684306 L178.289651,45.4257917 L182.555756,45.4257917 Z M180.243012,38.8189028 L180.601674,38.8189028 L185.453895,50.0588472 L184.510198,50.0588472 L182.865035,46.1765417 L177.980372,46.1765417 L176.335209,50.0588472 L175.39043,50.0588472 L180.243012,38.8189028 Z" id="Fill-47" fill="#FEFEFE" mask="url(#mask-2)"></path>
                    <polygon id="Fill-48" fill="#FEFEFE" mask="url(#mask-2)" points="189.637273 38.9166194 190.56511 38.9166194 190.56511 49.308675 195.808797 49.308675 195.808797 50.0587028 189.637273 50.0587028"></polygon>
                    <polygon id="Fill-49" fill="#FEFEFE" mask="url(#mask-2)" points="207.905537 38.9166194 208.801293 38.9166194 208.801293 44.0718417 216.194433 44.0718417 216.194433 38.9166194 217.089828 38.9166194 217.089828 50.0587028 216.194433 50.0587028 216.194433 44.8550917 208.801293 44.8550917 208.801293 50.0587028 207.905537 50.0587028"></polygon>
                    <polygon id="Fill-50" fill="#FEFEFE" mask="url(#mask-2)" points="222.965878 38.9166194 228.991413 38.9166194 228.991413 39.6348694 223.861994 39.6348694 223.861994 44.0559528 228.828843 44.0559528 228.828843 44.7734806 223.861994 44.7734806 223.861994 49.308675 229.121541 49.308675 229.121541 50.0587028 222.965878 50.0587028"></polygon>
                    <path d="M239.688792,45.4257917 L237.555199,40.3684306 L235.422327,45.4257917 L239.688792,45.4257917 Z M237.376048,38.8189028 L237.73435,38.8189028 L242.586931,50.0588472 L241.643234,50.0588472 L239.998071,46.1765417 L235.113048,46.1765417 L233.467885,50.0588472 L232.523466,50.0588472 L237.376048,38.8189028 Z" id="Fill-51" fill="#FEFEFE" mask="url(#mask-2)"></path>
                    <polygon id="Fill-52" fill="#FEFEFE" mask="url(#mask-2)" points="246.770994 38.9166194 247.698831 38.9166194 247.698831 49.308675 252.942517 49.308675 252.942517 50.0587028 246.770994 50.0587028"></polygon>
                    <polygon id="Fill-53" fill="#FEFEFE" mask="url(#mask-2)" points="259.720992 39.7160472 255.584655 39.7160472 255.584655 38.9165472 264.817969 38.9165472 264.817969 39.7160472 260.681631 39.7160472 260.681631 50.0589917 259.720992 50.0589917"></polygon>
                    <polygon id="Fill-54" fill="#FEFEFE" mask="url(#mask-2)" points="269.489092 38.9166194 270.384848 38.9166194 270.384848 44.0718417 277.777987 44.0718417 277.777987 38.9166194 278.673383 38.9166194 278.673383 50.0587028 277.777987 50.0587028 277.777987 44.8550917 270.384848 44.8550917 270.384848 50.0587028 269.489092 50.0587028"></polygon>
                </g>
            </g>
        </g>
    </g>
</svg>